<svg height="512pt" viewBox="0 -16 512 512" width="512pt" xmlns="http://www.w3.org/2000/svg"><path d="m512 15c0-8.285156-6.714844-15-15-15h-482c-8.285156 0-15 6.714844-15 15s6.714844 15 15 15h191.457031l-48.777343 32.519531c-4.171876 2.78125-6.679688 7.464844-6.679688 12.480469s2.507812 9.699219 6.679688 12.480469l48.777343 32.519531h-10.457031c-24.8125 0-45 20.1875-45 45v15h-106c-7.148438 0-13.308594 5.046875-14.710938 12.058594l-29.972656 149.875c-.210937 1.019531-.316406 2.039062-.316406 3.066406v90c0 8.285156 6.714844 15 15 15h48.578125c6.195313 17.457031 22.867187 30 42.421875 30 11.515625 0 22.03125-4.355469 30-11.496094 7.96875 7.144532 18.484375 11.496094 30 11.496094 19.554688 0 36.226562-12.542969 42.421875-30h95.15625c6.195313 17.457031 22.867187 30 42.421875 30 11.515625 0 22.03125-4.355469 30-11.496094 7.96875 7.144532 18.484375 11.496094 30 11.496094 19.554688 0 36.226562-12.542969 42.421875-30h48.578125c8.285156 0 15-6.714844 15-15v-90c0-1.003906-.105469-2.050781-.316406-3.066406l-29.972656-149.875c-1.402344-7.011719-7.5625-12.058594-14.710938-12.058594h-106v-15c0-24.8125-20.1875-45-45-45h-10.457031l48.777343-32.519531c4.171876-2.78125 6.679688-7.464844 6.679688-12.480469s-2.507812-9.699219-6.679688-12.480469l-48.777343-32.519531h191.457031c8.285156 0 15-6.714844 15-15zm-466.703125 255h75.703125v60h-87.703125zm60.703125 180c-8.269531 0-15-6.730469-15-15s6.730469-15 15-15 15 6.730469 15 15-6.730469 15-15 15zm60 0c-8.269531 0-15-6.730469-15-15s6.730469-15 15-15 15 6.730469 15 15-6.730469 15-15 15zm75-30h-30v-150h30zm60 0h-30v-150h30zm45 30c-8.269531 0-15-6.730469-15-15s6.730469-15 15-15 15 6.730469 15 15-6.730469 15-15 15zm60 0c-8.269531 0-15-6.730469-15-15s6.730469-15 15-15 15 6.730469 15 15-6.730469 15-15 15zm72.703125-120h-87.703125v-60h75.703125zm-24-120 6 30h-84.703125c-8.285156 0-15 6.714844-15 15v90c0 8.285156 6.714844 15 15 15h106v60h-33.578125c-6.195313-17.457031-22.867187-30-42.421875-30-11.515625 0-22.03125 4.355469-30 11.496094-7.96875-7.140625-18.484375-11.496094-30-11.496094-5.257812 0-10.304688.914062-15 2.578125v-137.578125c0-8.285156-6.714844-15-15-15h-120c-8.285156 0-15 6.714844-15 15v137.578125c-4.695312-1.664063-9.742188-2.578125-15-2.578125-11.515625 0-22.03125 4.355469-30 11.496094-7.96875-7.140625-18.484375-11.496094-30-11.496094-19.554688 0-36.226562 12.542969-42.421875 30h-33.578125v-60h106c8.285156 0 15-6.714844 15-15v-90c0-8.285156-6.714844-15-15-15h-84.703125l6-30zm-138.703125-60c8.269531 0 15 6.730469 15 15v15h-150v-15c0-8.269531 6.730469-15 15-15zm2.957031-75-62.957031 41.972656-62.957031-41.972656 62.957031-41.972656zm0 0"/></svg>