<?xml version="1.0" encoding="iso-8859-1"?>
<!-- Generator: Adobe Illustrator 19.0.0, SVG Export Plug-In . SVG Version: 6.00 Build 0)  -->
<svg version="1.1" id="Capa_1" xmlns="http://www.w3.org/2000/svg" xmlns:xlink="http://www.w3.org/1999/xlink" x="0px" y="0px"
	 viewBox="0 0 512 512" style="enable-background:new 0 0 512 512;" xml:space="preserve">
<g>
	<g transform="translate(1 15)">
		<g>
			<circle style="fill:#607D8B;" cx="75.8" cy="433" r="34.133"/>
			<circle style="fill:#607D8B;" cx="144.067" cy="433" r="34.133"/>
			<circle style="fill:#607D8B;" cx="365.933" cy="433" r="34.133"/>
			<circle style="fill:#607D8B;" cx="434.2" cy="433" r="34.133"/>
		</g>
		<path style="fill:#C52828;" d="M502.467,219.667V407.4c-0.028,9.414-7.653,17.039-17.067,17.067H24.6
			c-9.414-0.028-17.039-7.652-17.067-17.067V219.667c0.022-28.268,22.932-51.178,51.2-51.2h392.533
			C479.534,168.489,502.444,191.399,502.467,219.667z"/>
		<path style="fill:#F44335;" d="M476.867,219.667V407.4c-0.028,9.414-7.653,17.039-17.067,17.067H24.6
			c-9.414-0.028-17.039-7.652-17.067-17.067V219.667c0.022-28.268,22.932-51.178,51.2-51.2h366.933
			C453.934,168.489,476.844,191.399,476.867,219.667z"/>
		<path style="fill:#00BCD4;" d="M161.133,168.467v102.4c0.002,9.053-3.593,17.737-9.995,24.139
			c-6.402,6.402-15.085,9.997-24.139,9.995H7.533l0-85.333c-0.011-24.978,18.032-46.305,42.667-50.432
			c2.815-0.517,5.671-0.774,8.533-0.768L161.133,168.467z"/>
		<path style="fill:#00838F;" d="M502.467,219.667V305H383c-9.053,0.002-17.737-3.593-24.139-9.995s-9.997-15.085-9.995-24.139
			v-102.4h102.4C479.534,168.489,502.444,191.399,502.467,219.667z"/>
		<path style="fill:#00BCD4;" d="M476.867,219.667V305H383c-9.053,0.002-17.737-3.593-24.139-9.995s-9.997-15.085-9.995-24.139
			v-102.4h76.8C453.934,168.489,476.844,191.399,476.867,219.667z"/>
		<path style="fill:#CFD8DC;" d="M314.733,245.267v179.2H195.267v-179.2c0.028-9.414,7.652-17.039,17.067-17.067h85.333
			C307.081,228.228,314.706,235.853,314.733,245.267z"/>
		<g>
			<path style="fill:#607D8B;" d="M178.2,151.4v17.067H58.733V151.4c0.028-9.414,7.652-17.039,17.067-17.067h85.333
				C170.548,134.361,178.173,141.986,178.2,151.4z"/>
			<path style="fill:#607D8B;" d="M442.733,151.4v17.067H323.267V151.4c0.027-9.414,7.652-17.039,17.067-17.067h85.333
				C435.081,134.361,442.706,141.986,442.733,151.4z"/>
		</g>
		<g>
			<path style="fill:#CFD8DC;" d="M152.6,151.4v17.067H58.733V151.4c0.028-9.414,7.652-17.039,17.067-17.067h59.733
				C144.948,134.361,152.572,141.986,152.6,151.4z"/>
			<path style="fill:#CFD8DC;" d="M417.133,151.4v17.067h-93.867V151.4c0.027-9.414,7.652-17.039,17.067-17.067h59.733
				C409.481,134.361,417.106,141.986,417.133,151.4z"/>
		</g>
	</g>
	<g>
		<path d="M452.267,174.933V166.4c-0.015-14.132-11.468-25.585-25.6-25.6H404.6l45.167-45.167c1.601-1.6,2.5-3.77,2.5-6.033
			s-0.899-4.433-2.5-6.033l-59.733-59.733c-1.6-1.601-3.77-2.5-6.033-2.5s-4.434,0.899-6.033,2.5L360.9,40.9
			c-2.178,2.151-3.037,5.304-2.251,8.262c0.786,2.958,3.097,5.269,6.055,6.055c2.958,0.786,6.111-0.073,8.262-2.251L384,41.933
			L431.667,89.6L384,137.267L336.333,89.6l11.034-11.034c2.178-2.151,3.037-5.304,2.251-8.262c-0.786-2.958-3.097-5.269-6.055-6.055
			s-6.111,0.073-8.262,2.251l-17.067,17.067c-1.601,1.6-2.5,3.77-2.5,6.033s0.899,4.433,2.5,6.033L363.4,140.8h-22.067
			c-14.132,0.015-25.585,11.468-25.6,25.6v8.533h-128V166.4c-0.015-14.132-11.468-25.585-25.6-25.6h-22.067l45.167-45.167
			c1.601-1.6,2.5-3.77,2.5-6.033s-0.899-4.433-2.5-6.033L125.5,23.833c-1.6-1.601-3.77-2.5-6.033-2.5s-4.433,0.899-6.033,2.5
			L96.367,40.9c-2.178,2.151-3.037,5.304-2.251,8.262c0.786,2.958,3.097,5.269,6.055,6.055c2.958,0.786,6.111-0.073,8.262-2.251
			l11.034-11.033L167.133,89.6l-47.667,47.667L71.8,89.6l11.033-11.034c3.281-3.341,3.256-8.701-0.054-12.012
			c-3.311-3.311-8.671-3.335-12.012-0.054L53.7,83.567c-1.601,1.6-2.5,3.77-2.5,6.033s0.899,4.433,2.5,6.033L98.867,140.8H76.8
			c-14.132,0.015-25.585,11.468-25.6,25.6v9.215C21.846,179.871,0.053,205.007,0,234.667V422.4
			c0.015,14.132,11.468,25.585,25.6,25.6h8.533c0.032,9.262,3.107,18.257,8.752,25.6H8.533C3.821,473.6,0,477.421,0,482.134
			s3.821,8.533,8.533,8.533h494.933c4.713,0,8.533-3.82,8.533-8.533s-3.82-8.533-8.533-8.533h-34.352
			c5.644-7.343,8.719-16.338,8.752-25.6h8.533c14.132-0.015,25.585-11.468,25.6-25.6V234.667
			C511.962,201.693,485.241,174.972,452.267,174.933z M332.8,166.4c0.005-4.711,3.822-8.529,8.533-8.533h85.333
			c4.711,0.005,8.529,3.822,8.533,8.533v8.533H332.8V166.4z M68.267,166.4c0.005-4.711,3.822-8.529,8.533-8.533h85.333
			c4.711,0.005,8.529,3.822,8.533,8.533v8.533h-102.4V166.4z M51.2,192.863V268.8c0,4.713,3.821,8.533,8.533,8.533
			s8.533-3.821,8.533-8.533V192H102.4v76.8c0,4.713,3.821,8.533,8.533,8.533c4.713,0,8.533-3.821,8.533-8.533V192H153.6v93.867
			c-0.015,14.132-11.468,25.585-25.6,25.6h-8.533v-8.533c0-4.713-3.821-8.533-8.533-8.533c-4.713,0-8.533,3.821-8.533,8.533v8.533
			H68.267v-8.533c0-4.713-3.821-8.533-8.533-8.533s-8.533,3.821-8.533,8.533v8.533H17.067v-76.8
			C17.095,214.402,31.35,196.943,51.2,192.863z M51.2,448h51.2c0,14.138-11.462,25.6-25.6,25.6S51.2,462.139,51.2,448z
			 M298.667,251.733c4.711,0.005,8.529,3.822,8.533,8.533v170.667h-42.667v-102.4H281.6c4.713,0,8.533-3.821,8.533-8.533
			s-3.821-8.533-8.533-8.533h-17.067v-59.733H298.667z M392.533,448c0,14.138-11.462,25.6-25.6,25.6s-25.6-11.462-25.6-25.6H392.533
			z M401.067,473.336c0.068,0.092,0.149,0.173,0.218,0.264h-0.436C400.918,473.509,400.998,473.428,401.067,473.336z
			 M247.467,311.467H230.4c-4.713,0-8.533,3.82-8.533,8.533s3.82,8.533,8.533,8.533h17.067v102.4H204.8V260.267
			c0.005-4.711,3.822-8.529,8.533-8.533h34.133V311.467z M196.267,448h128c0.032,9.262,3.107,18.257,8.752,25.6H178.982
			c5.644-7.343,8.719-16.338,8.752-25.6H196.267z M170.667,448c0,14.138-11.462,25.6-25.6,25.6c-14.139,0-25.6-11.462-25.6-25.6
			H170.667z M111.152,473.6h-0.436c0.069-0.091,0.15-0.172,0.218-0.264C111.002,473.428,111.082,473.509,111.152,473.6z
			 M435.2,473.6c-14.132-0.015-25.585-11.468-25.6-25.6h51.2C460.785,462.132,449.332,473.585,435.2,473.6z M486.4,430.934H324.267
			V260.267c-0.015-14.132-11.468-25.585-25.6-25.6h-85.333c-14.132,0.015-25.585,11.468-25.6,25.6v170.667H25.6
			c-4.711-0.005-8.529-3.822-8.533-8.533v-93.867H128c23.553-0.028,42.639-19.114,42.667-42.667V192h170.667v93.867
			c0.028,23.553,19.114,42.639,42.667,42.667h110.933V422.4C494.929,427.111,491.111,430.929,486.4,430.934z M494.933,311.467
			h-42.667v-8.533c0-4.713-3.821-8.533-8.533-8.533c-4.713,0-8.533,3.821-8.533,8.533v8.533h-34.133v-8.533
			c0-4.713-3.82-8.533-8.533-8.533S384,298.221,384,302.934v8.533c-14.132-0.015-25.585-11.468-25.6-25.6V192H384v76.8
			c0,4.713,3.82,8.533,8.533,8.533s8.533-3.821,8.533-8.533V192H435.2v76.8c0,4.713,3.821,8.533,8.533,8.533
			c4.713,0,8.533-3.821,8.533-8.533V192c23.553,0.028,42.639,19.114,42.667,42.667V311.467z"/>
		<path d="M51.2,396.8h-8.533c-4.713,0-8.533,3.82-8.533,8.533s3.821,8.533,8.533,8.533H51.2c4.713,0,8.533-3.82,8.533-8.533
			S55.913,396.8,51.2,396.8z"/>
		<path d="M162.133,396.8h-76.8c-4.713,0-8.533,3.82-8.533,8.533s3.821,8.533,8.533,8.533h76.8c4.713,0,8.533-3.82,8.533-8.533
			S166.846,396.8,162.133,396.8z"/>
		<path d="M469.333,396.8H460.8c-4.713,0-8.533,3.82-8.533,8.533s3.82,8.533,8.533,8.533h8.533c4.713,0,8.533-3.82,8.533-8.533
			S474.046,396.8,469.333,396.8z"/>
		<path d="M426.667,396.8h-76.8c-4.713,0-8.533,3.82-8.533,8.533s3.821,8.533,8.533,8.533h76.8c4.713,0,8.533-3.82,8.533-8.533
			S431.38,396.8,426.667,396.8z"/>
	</g>
</g>
<g>
</g>
<g>
</g>
<g>
</g>
<g>
</g>
<g>
</g>
<g>
</g>
<g>
</g>
<g>
</g>
<g>
</g>
<g>
</g>
<g>
</g>
<g>
</g>
<g>
</g>
<g>
</g>
<g>
</g>
</svg>
